<mxfile host="app.diagrams.net" modified="2023-04-28T00:19:19.503Z" agent="Mozilla/5.0 (Windows NT 10.0; Win64; x64) AppleWebKit/537.36 (KHTML, like Gecko) Chrome/112.0.0.0 Safari/537.36" etag="du-6774X1YLrtfrswO4T" version="21.2.3" type="device">
  <diagram name="Sayfa -1" id="AwxsrzahBYhF7a34csuW">
    <mxGraphModel dx="1122" dy="465" grid="0" gridSize="10" guides="1" tooltips="1" connect="1" arrows="1" fold="1" page="0" pageScale="1" pageWidth="827" pageHeight="1169" math="0" shadow="0">
      <root>
        <mxCell id="0" />
        <mxCell id="1" parent="0" />
        <mxCell id="b6RKW1MAlzfkg6roMFV0-16" style="rounded=0;orthogonalLoop=1;jettySize=auto;html=1;exitX=1;exitY=0;exitDx=0;exitDy=0;entryX=0;entryY=1;entryDx=0;entryDy=0;" edge="1" parent="1" target="b6RKW1MAlzfkg6roMFV0-3">
          <mxGeometry relative="1" as="geometry">
            <mxPoint x="279.9999999999998" y="410" as="sourcePoint" />
          </mxGeometry>
        </mxCell>
        <mxCell id="b6RKW1MAlzfkg6roMFV0-17" style="rounded=0;orthogonalLoop=1;jettySize=auto;html=1;entryX=0;entryY=0;entryDx=0;entryDy=0;fillColor=#660066;strokeColor=#FF0080;" edge="1" parent="1" target="b6RKW1MAlzfkg6roMFV0-4">
          <mxGeometry relative="1" as="geometry">
            <mxPoint x="280" y="469.33333333333326" as="sourcePoint" />
          </mxGeometry>
        </mxCell>
        <mxCell id="b6RKW1MAlzfkg6roMFV0-2" value="Piyasayı analiz etme&lt;br&gt;(6,1)" style="rounded=1;whiteSpace=wrap;html=1;fillColor=#66B2FF;" vertex="1" parent="1">
          <mxGeometry x="180" y="410" width="110" height="60" as="geometry" />
        </mxCell>
        <mxCell id="b6RKW1MAlzfkg6roMFV0-20" style="edgeStyle=orthogonalEdgeStyle;rounded=0;orthogonalLoop=1;jettySize=auto;html=1;entryX=0;entryY=0.5;entryDx=0;entryDy=0;" edge="1" parent="1" source="b6RKW1MAlzfkg6roMFV0-3" target="b6RKW1MAlzfkg6roMFV0-5">
          <mxGeometry relative="1" as="geometry" />
        </mxCell>
        <mxCell id="b6RKW1MAlzfkg6roMFV0-21" style="edgeStyle=orthogonalEdgeStyle;rounded=0;orthogonalLoop=1;jettySize=auto;html=1;entryX=0;entryY=0.667;entryDx=0;entryDy=0;entryPerimeter=0;" edge="1" parent="1" source="b6RKW1MAlzfkg6roMFV0-3" target="b6RKW1MAlzfkg6roMFV0-7">
          <mxGeometry relative="1" as="geometry">
            <mxPoint x="450" y="280.0000000000001" as="targetPoint" />
            <Array as="points">
              <mxPoint x="370" y="280" />
            </Array>
          </mxGeometry>
        </mxCell>
        <mxCell id="b6RKW1MAlzfkg6roMFV0-3" value="Hedef kitlesini belirleme&lt;br&gt;(3,1)" style="rounded=1;whiteSpace=wrap;html=1;fillColor=#66B2FF;" vertex="1" parent="1">
          <mxGeometry x="300" y="340" width="110" height="60" as="geometry" />
        </mxCell>
        <mxCell id="b6RKW1MAlzfkg6roMFV0-18" style="edgeStyle=orthogonalEdgeStyle;rounded=0;orthogonalLoop=1;jettySize=auto;html=1;entryX=0;entryY=0.5;entryDx=0;entryDy=0;strokeColor=#FF0080;" edge="1" parent="1" source="b6RKW1MAlzfkg6roMFV0-4" target="b6RKW1MAlzfkg6roMFV0-8">
          <mxGeometry relative="1" as="geometry" />
        </mxCell>
        <mxCell id="b6RKW1MAlzfkg6roMFV0-4" value="Gereksinim listesi analizi&lt;br&gt;(7)" style="rounded=1;whiteSpace=wrap;html=1;arcSize=23;fillColor=#FFCC99;" vertex="1" parent="1">
          <mxGeometry x="300" y="480" width="110" height="60" as="geometry" />
        </mxCell>
        <mxCell id="b6RKW1MAlzfkg6roMFV0-25" style="rounded=0;orthogonalLoop=1;jettySize=auto;html=1;exitX=1;exitY=0.5;exitDx=0;exitDy=0;" edge="1" parent="1" source="b6RKW1MAlzfkg6roMFV0-5">
          <mxGeometry relative="1" as="geometry">
            <mxPoint x="650" y="370" as="targetPoint" />
          </mxGeometry>
        </mxCell>
        <mxCell id="b6RKW1MAlzfkg6roMFV0-5" value="Karar tablosu&lt;br&gt;(4,1)" style="rounded=1;whiteSpace=wrap;html=1;fillColor=#99FF99;" vertex="1" parent="1">
          <mxGeometry x="460" y="340" width="110" height="60" as="geometry" />
        </mxCell>
        <mxCell id="b6RKW1MAlzfkg6roMFV0-6" value="Veri sözcüklerinin oluşturulması&lt;br&gt;(3)" style="rounded=1;whiteSpace=wrap;html=1;fillColor=#CC99FF;" vertex="1" parent="1">
          <mxGeometry x="620" y="480" width="110" height="60" as="geometry" />
        </mxCell>
        <mxCell id="b6RKW1MAlzfkg6roMFV0-23" style="edgeStyle=orthogonalEdgeStyle;rounded=0;orthogonalLoop=1;jettySize=auto;html=1;entryX=0.25;entryY=0;entryDx=0;entryDy=0;" edge="1" parent="1" source="b6RKW1MAlzfkg6roMFV0-7" target="b6RKW1MAlzfkg6roMFV0-14">
          <mxGeometry relative="1" as="geometry" />
        </mxCell>
        <mxCell id="b6RKW1MAlzfkg6roMFV0-7" value="Karar ağacı&lt;br&gt;(2,9)" style="rounded=1;whiteSpace=wrap;html=1;fillColor=#99FF99;" vertex="1" parent="1">
          <mxGeometry x="460" y="240" width="110" height="60" as="geometry" />
        </mxCell>
        <mxCell id="b6RKW1MAlzfkg6roMFV0-19" style="edgeStyle=orthogonalEdgeStyle;rounded=0;orthogonalLoop=1;jettySize=auto;html=1;exitX=1;exitY=0.5;exitDx=0;exitDy=0;entryX=0;entryY=0.5;entryDx=0;entryDy=0;strokeColor=#FF0080;" edge="1" parent="1" source="b6RKW1MAlzfkg6roMFV0-8" target="b6RKW1MAlzfkg6roMFV0-6">
          <mxGeometry relative="1" as="geometry" />
        </mxCell>
        <mxCell id="b6RKW1MAlzfkg6roMFV0-8" value="Veri akış diyagramının hazırlanması&lt;br&gt;(3,3)" style="rounded=1;whiteSpace=wrap;html=1;fillColor=#FFCC99;" vertex="1" parent="1">
          <mxGeometry x="460" y="480" width="110" height="60" as="geometry" />
        </mxCell>
        <mxCell id="b6RKW1MAlzfkg6roMFV0-14" value="Alternatif kararları seçme&lt;br&gt;(2,01)" style="rounded=1;whiteSpace=wrap;html=1;fillColor=#99FF99;" vertex="1" parent="1">
          <mxGeometry x="650" y="330" width="110" height="60" as="geometry" />
        </mxCell>
        <mxCell id="b6RKW1MAlzfkg6roMFV0-28" value="Kritik yol" style="rounded=1;whiteSpace=wrap;html=1;fillColor=#FF99CC;" vertex="1" parent="1">
          <mxGeometry x="10" y="630" width="100" height="50" as="geometry" />
        </mxCell>
        <mxCell id="b6RKW1MAlzfkg6roMFV0-29" value="&lt;font style=&quot;font-size: 24px;&quot;&gt;=&lt;/font&gt;" style="text;html=1;strokeColor=none;fillColor=none;align=center;verticalAlign=middle;whiteSpace=wrap;rounded=0;" vertex="1" parent="1">
          <mxGeometry x="100" y="640" width="60" height="30" as="geometry" />
        </mxCell>
        <mxCell id="b6RKW1MAlzfkg6roMFV0-31" value="1&lt;br&gt;(6,1)" style="rounded=1;whiteSpace=wrap;html=1;fillColor=#66B2FF;" vertex="1" parent="1">
          <mxGeometry x="150" y="630" width="60" height="50" as="geometry" />
        </mxCell>
        <mxCell id="b6RKW1MAlzfkg6roMFV0-33" value="3&lt;br&gt;(7)" style="rounded=1;whiteSpace=wrap;html=1;fillColor=#FFCC99;" vertex="1" parent="1">
          <mxGeometry x="230" y="630" width="60" height="50" as="geometry" />
        </mxCell>
        <mxCell id="b6RKW1MAlzfkg6roMFV0-34" value="4&lt;br&gt;(3,3)" style="rounded=1;whiteSpace=wrap;html=1;fillColor=#FFCC99;" vertex="1" parent="1">
          <mxGeometry x="310" y="630" width="60" height="50" as="geometry" />
        </mxCell>
        <mxCell id="b6RKW1MAlzfkg6roMFV0-35" value="5&lt;br&gt;(3)" style="rounded=1;whiteSpace=wrap;html=1;fillColor=#CC99FF;" vertex="1" parent="1">
          <mxGeometry x="390" y="630" width="60" height="50" as="geometry" />
        </mxCell>
        <mxCell id="b6RKW1MAlzfkg6roMFV0-41" value="+" style="text;html=1;strokeColor=none;fillColor=none;align=center;verticalAlign=middle;whiteSpace=wrap;rounded=0;" vertex="1" parent="1">
          <mxGeometry x="190" y="640" width="60" height="30" as="geometry" />
        </mxCell>
        <mxCell id="b6RKW1MAlzfkg6roMFV0-44" value="+" style="text;html=1;strokeColor=none;fillColor=none;align=center;verticalAlign=middle;whiteSpace=wrap;rounded=0;" vertex="1" parent="1">
          <mxGeometry x="270" y="640" width="60" height="30" as="geometry" />
        </mxCell>
        <mxCell id="b6RKW1MAlzfkg6roMFV0-45" value="+" style="text;html=1;strokeColor=none;fillColor=none;align=center;verticalAlign=middle;whiteSpace=wrap;rounded=0;" vertex="1" parent="1">
          <mxGeometry x="350" y="640" width="60" height="30" as="geometry" />
        </mxCell>
        <mxCell id="b6RKW1MAlzfkg6roMFV0-53" value="=" style="text;html=1;strokeColor=none;fillColor=none;align=center;verticalAlign=middle;whiteSpace=wrap;rounded=0;" vertex="1" parent="1">
          <mxGeometry x="430" y="640" width="60" height="30" as="geometry" />
        </mxCell>
        <mxCell id="b6RKW1MAlzfkg6roMFV0-56" style="edgeStyle=orthogonalEdgeStyle;rounded=0;orthogonalLoop=1;jettySize=auto;html=1;entryX=0;entryY=0.5;entryDx=0;entryDy=0;" edge="1" parent="1" source="b6RKW1MAlzfkg6roMFV0-55" target="b6RKW1MAlzfkg6roMFV0-2">
          <mxGeometry relative="1" as="geometry" />
        </mxCell>
        <mxCell id="b6RKW1MAlzfkg6roMFV0-55" value="&lt;font style=&quot;font-size: 24px;&quot;&gt;0&lt;/font&gt;" style="rounded=1;whiteSpace=wrap;html=1;fillColor=#FFFF66;" vertex="1" parent="1">
          <mxGeometry x="20" y="410" width="110" height="60" as="geometry" />
        </mxCell>
        <mxCell id="b6RKW1MAlzfkg6roMFV0-60" value="&lt;font style=&quot;font-size: 18px;&quot;&gt;19,4&lt;/font&gt;" style="text;html=1;strokeColor=none;fillColor=none;align=center;verticalAlign=middle;whiteSpace=wrap;rounded=0;" vertex="1" parent="1">
          <mxGeometry x="454" y="640" width="60" height="30" as="geometry" />
        </mxCell>
      </root>
    </mxGraphModel>
  </diagram>
</mxfile>
